# AST/ASF file generated using VICON BodyLanguage
# -----------------------------------------------
:version 1.10
:name VICON
:units
  mass 1.0
  length 0.45
  angle deg
:documentation
   .ast/.asf automatically generated from VICON data using
   VICON BodyBuilder and BodyLanguage model FoxedUp or BRILLIANT.MOD
:root
   order TX TY TZ RX RY RZ
   axis XYZ
   position 0 0 0  
   orientation 0 0 0 
:bonedata
  begin
     id 1 
     name lhipjoint
     direction 0.623529 -0.717805 0.309788 
     length 2.23224 
     axis 0 0 0  XYZ
  end
  begin
     id 2 
     name lfemur
     direction 0.34202 -0.939693 0  
     length 7.11402  
     axis 0 0 20  XYZ
    dof rx ry rz
    limits (-160.0 20.0)
           (-70.0 70.0)
           (-60.0 70.0)
  end
  begin
     id 3 
     name ltibia
     direction 0.34202 -0.939693 0   
     length 6.78496   
     axis 0 0 20   XYZ
    dof rx
    limits (-10.0 170.0)
  end
  begin
     id 4 
     name lfoot
     direction 0.125078 -0.343648 0.930732   
     length 1.84054   
     axis -90 7.62852e-016 20   XYZ
    dof rx rz
    limits (-45.0 90.0)
           (-70.0 20.0)
  end
  begin
     id 5 
     name ltoes
     direction 1.53565e-011 -4.21893e-011 1   
     length 0.916474   
     axis -90 7.62852e-016 20   XYZ
    dof rx
    limits (-90.0 20.0)
  end
  begin
     id 6 
     name rhipjoint
     direction -0.564688 -0.757748 0.327026   
     length 2.11457  
     axis 0 0 0  XYZ 
  end
  begin
     id 7 
     name rfemur
     direction -0.34202 -0.939693 0   
     length 7.14609   
     axis 0 0 -20   XYZ
    dof rx ry rz
    limits (-160.0 20.0)
           (-70.0 70.0)
           (-70.0 60.0)
  end
  begin
     id 8 
     name rtibia
     direction -0.34202 -0.939693 0   
     length 6.78101   
     axis 0 0 -20   XYZ
    dof rx
    limits (-10.0 170.0)
 end
 begin
     id 9 
     name rfoot
     direction -0.0992671 -0.272734 0.956955   
     length 1.96168  
     axis -90 -7.62852e-016 -20   XYZ
    dof rx rz
    limits (-45.0 90.0)
           (-20.0 70.0)
  end
  begin
     id 10 
     name rtoes
     direction -1.5356e-011 -4.21891e-011 1   
     length 0.982933   
     axis -90 -7.62852e-016 -20   XYZ
    dof rx
    limits (-90.0 20.0)
  end
  begin
     id 11 
     name lowerback
     direction -0.00596953 0.998668 0.0512524   
     length 1.87557   
     axis 0 0 0   XYZ
    dof rx ry rz
    limits (-20.0 45.0)
           (-30.0 30.0)
           (-30.0 30.0)
  end
  begin
     id 12 
     name upperback
     direction 0.00584879 0.999652 0.0257308   
     length 1.87883   
     axis 0 0 0   XYZ
    dof rx ry rz
    limits (-20.0 45.0)
           (-30.0 30.0)
           (-30.0 30.0)
  end
  begin
     id 13 
     name thorax
     direction 0.010104 0.999947 0.00178881   
     length 1.87779   
     axis 0 0 0   XYZ
    dof rx ry rz
    limits (-20.0 45.0)
           (-30.0 30.0)
           (-30.0 30.0)
  end
  begin
     id 14 
     name lowerneck
     direction 0.0120771 0.995934 -0.0892773   
     length 1.40897   
     axis 0 0 0   XYZ
    dof rx ry rz
    limits (-20.0 45.0)
           (-30.0 30.0)
           (-30.0 30.0)
  end
  begin
     id 15 
     name upperneck
     direction -0.030568 0.999465 -0.0116366   
     length 1.38661   
     axis 0 0 0   XYZ
    dof rx ry rz
    limits (-20.0 45.0)
           (-30.0 30.0)
           (-30.0 30.0)
  end
  begin
     id 16
     name head
     direction -0.0170715 0.999854 -0.00104426  
     length 1.47052  
     axis 0 0 0   XYZ
    dof rx ry rz
    limits (-20.0 45.0)
           (-30.0 30.0)
           (-30.0 30.0)
  end
  begin
     id 17 
     name lclavicle
     direction 0.977763 0.206143 0.038532  
     length 3.02424  
     axis 0 0 0   XYZ
    dof ry rz
    limits (-20.0 10.0)
           (0.0 20.0)
  end
  begin
     id 18 
     name lhumerus
     direction 1 -4.48965e-011 -2.62654e-027   
     length 4.68382   
     axis 180 -30 -90   XYZ
    dof rx ry rz
    limits (-60.0 90.0)
           (-90.0 90.0)
           (-90.0 90.0)
  end
  begin
     id 19
     name lradius
     direction 1 -4.48973e-011 -1.54954e-027   
     length 2.98124   
     axis 180 -30 -90   XYZ
    dof rx
    limits (-10.0 170.0)
  end
  begin
     id 20
     name lwrist
     direction 1 -4.48959e-011 7.20928e-028   
     length 1.49062   
     axis -5.52449e-016 90 90   XYZ
    dof ry
    limits (-180.0 0.0)
 end
  begin
     id 21 
     name lhand
     direction 1 -4.48971e-011 1.44186e-027   
     length 0.707595   
     axis -9.20027e-016 90 90   XYZ
    dof rx rz
    limits (-90.0 90.0)
           (-45.0 45.0)
  end
  begin
     id 22 
     name lfingers
     direction 1 -4.48985e-011 2.88371e-027   
     length 0.570481   
     axis -1.84005e-015 90 90   XYZ
    dof rx
    limits (0.0 90.0)
  end
  begin
     id 23
     name lthumb
     direction 0.707107 -6.34929e-011 0.707107   
     length 0.819101   
     axis -90 45 2.85299e-015   XYZ
    dof rx rz
    limits (-45.0 45.0)
           (-45.0 45.0)
  end
  begin
     id 24 
     name rclavicle
     direction -0.958661 0.284411 -0.00895327   
     length 3.11921  
     axis 0 0 0   XYZ 
    dof ry rz
    limits (-10.0 20.0)
           (-20.0 0.0)
  end
  begin
     id 25 
     name rhumerus
     direction -1 -4.48963e-011 -4.22193e-027  
     length 4.75876   
     axis 180 30 90   XYZ
    dof rx ry rz
    limits (-90.0 60.0)
           (-90.0 90.0)
           (-90.0 90.0)
  end
  begin
     id 26 
     name rradius
     direction -1 -4.48968e-011 -1.07616e-027   
     length 2.93293   
     axis 180 30 90   XYZ
    dof rx
    limits (-10.0 170.0)
  end
  begin
     id 27 
     name rwrist
     direction -1 -4.48965e-011 7.20928e-028   
     length 1.46647   
     axis -5.52449e-016 -90 -90   XYZ
    dof ry
    limits (-180.0 0.0)
  end
  begin
     id 28
     name rhand
     direction -1 -4.48971e-011 1.44186e-027   
     length 0.831748   
     axis -9.20027e-016 -90 -90   XYZ
    dof rx rz
    limits (-90.0 90.0)
           (-45.0 45.0)
  end
  begin
     id 29
     name rfingers
     direction -1 -4.48961e-011 2.88371e-027   
     length 0.670577   
     axis -1.84005e-015 -90 -90   XYZ
    dof rx
    limits (0.0 90.0)
  end
  begin
     id 30
     name rthumb
     direction -0.707107 -6.34929e-011 0.707107   
     length 0.962818   
     axis -90 -45 -2.85299e-015   XYZ
    dof rx rz
    limits (-45.0 45.0)
           (-45.0 45.0)
  end
:hierarchy
  begin
    root lhipjoint rhipjoint lowerback
    lhipjoint lfemur
    lfemur ltibia
    ltibia lfoot
    lfoot ltoes
    rhipjoint rfemur
    rfemur rtibia
    rtibia rfoot
    rfoot rtoes
    lowerback upperback
    upperback thorax
    thorax lowerneck lclavicle rclavicle
    lowerneck upperneck
    upperneck head
    lclavicle lhumerus
    lhumerus lradius
    lradius lwrist
    lwrist lhand lthumb
    lhand lfingers
    rclavicle rhumerus
    rhumerus rradius
    rradius rwrist
    rwrist rhand rthumb
    rhand rfingers
  end

#!OML:ASF E:\id_vita\Project 1\Capture day 1\Session 1\Female.ASF
:FULLY-SPECIFIED
:DEGREES
416
root -12.5626 13.8238 -2.16966 -137.802 -57.861 201.91
lowerback 17.4097 5.23497 -12.4457
upperback 2.51562 4.17147 -1.27479
thorax -7.83207 2.23381 4.62154
lowerneck -10.8951 9.343 -1.43754
upperneck -31.9742 7.4117 -17.4459
head -7.46652 4.09525 -5.7758
rclavicle 5.56597e-015 7.69297e-014
rhumerus 7.76029 21.1443 -98.5799
rradius 63.436
rwrist -8.2305
rhand -29.7274 -2.09029
rfingers 7.12502
rthumb -3.05421 -32.0482
lclavicle 5.56597e-015 7.69297e-014
lhumerus 57.5154 29.8476 157.761
lradius 8.22728
lwrist -81.8344
lhand -41.2456 30.8635
lfingers 7.12502
lthumb -14.1683 60.3603
rfemur -97.9833 -8.60798 34.2427
rtibia 81.0711
rfoot -10.7983 -0.234422
rtoes -27.4299
lfemur -114.171 20.7341 -18.4526
ltibia 60.2346
lfoot -5.31737 9.06359
ltoes 2.14976
417
root -12.5189 13.8103 -2.19408 -137.658 -57.8619 201.611
lowerback 17.5025 5.25895 -12.475
upperback 2.54635 4.18514 -1.24351
thorax -7.8557 2.24025 4.66439
lowerneck -10.8478 9.25435 -1.7248
upperneck -31.9066 7.36034 -17.1965
head -7.49139 4.08735 -5.64218
rclavicle -1.27222e-014 -7.41467e-014
rhumerus 7.56218 21.0839 -98.5674
rradius 63.6258
rwrist -8.26537
rhand -29.5499 -2.53282
rfingers 7.12502
rthumb -2.88275 -32.4931
lclavicle -1.27222e-014 -7.41467e-014
lhumerus 57.6072 30.3089 158.284
lradius 8.17493
lwrist -82.1101
lhand -41.2467 30.7053
lfingers 7.12502
lthumb -14.1694 60.202
rfemur -98.0512 -8.63863 34.3595
rtibia 81.136
rfoot -10.9363 -0.387259
rtoes -28.3051
lfemur -114.186 20.7967 -18.5939
ltibia 60.1849
lfoot -5.14231 8.88092
ltoes 2.36738
418
root -12.4752 13.7945 -2.21247 -137.37 -57.9287 201.165
lowerback 17.7076 5.13928 -12.469
upperback 2.48114 3.9907 -1.281
thorax -8.00245 2.15612 4.65901
lowerneck -10.7739 9.2751 -1.83598
upperneck -31.8499 7.4885 -16.8696
head -7.50029 4.14595 -5.5122
rclavicle 1.27222e-014 7.95139e-015
rhumerus 7.23551 21.3193 -98.7632
rradius 63.7967
rwrist -8.22188
rhand -29.1497 -3.90085
rfingers 7.12502
rthumb -2.49625 -33.866
lclavicle 1.27222e-014 7.95139e-015
lhumerus 58.0733 30.9234 158.719
lradius 8.0392
lwrist -82.7829
lhand -41.7029 32.0107
lfingers 7.12502
lthumb -14.6089 61.4762
rfemur -98.2042 -8.79349 34.4664
rtibia 81.2993
rfoot -11.2395 -0.578354
rtoes -28.8771
lfemur -114.202 20.7261 -18.7226
ltibia 60.1184
lfoot -5.03033 8.69205
ltoes 2.0366
419
root -12.4298 13.7859 -2.23776 -137.522 -57.8439 201.115
lowerback 17.8103 5.17117 -12.553
upperback 2.5298 4.00144 -1.24943
thorax -8.01459 2.16051 4.73379
lowerneck -10.6707 9.28484 -1.89219
upperneck -31.8794 7.53049 -16.7457
head -7.53564 4.17024 -5.46774
rclavicle 1.00983e-013 3.16068e-014
rhumerus 7.08591 21.6125 -98.779
rradius 63.9797
rwrist -8.57529
rhand -28.8823 -5.33739
rfingers 7.12502
rthumb -2.238 -35.3054
lclavicle 1.00983e-013 3.16068e-014
lhumerus 58.6214 31.2817 159.328
lradius 7.68624
lwrist -83.3178
lhand -41.0889 31.4165
lfingers 7.12502
lthumb -14.0173 60.9239
rfemur -98.0587 -8.70041 34.453
rtibia 81.5035
rfoot -11.6292 -0.707142
rtoes -28.0576
lfemur -114.064 20.9491 -18.6738
ltibia 60.0482
lfoot -4.97822 8.59172
ltoes 2.20659
420
root -12.3828 13.7905 -2.28291 -137.714 -57.5035 201.126
lowerback 17.6543 5.34009 -13.019
upperback 2.68196 4.15008 -1.3038
thorax -7.81556 2.22203 4.90591
lowerneck -10.6818 9.36196 -1.47084
upperneck -31.8624 7.57866 -17.014
head -7.47549 4.16578 -5.62463
rclavicle 1.43125e-014 -8.74653e-014
rhumerus 7.19071 21.9138 -98.8549
rradius 64.192
rwrist -9.46128
rhand -29.2005 -4.92044
rfingers 7.12502
rthumb -2.54531 -34.885
lclavicle 1.43125e-014 -8.74653e-014
lhumerus 59.0603 31.4099 159.768
lradius 7.19892
lwrist -83.2025
lhand -42.1317 30.4488
lfingers 7.12502
lthumb -15.022 59.8839
rfemur -97.6618 -8.33418 34.0237
rtibia 81.638
rfoot -11.9181 -0.40238
rtoes -24.7741
lfemur -113.912 21.4706 -18.8234
ltibia 60.06
lfoot -4.98689 8.59391
ltoes 1.6711
421
root -12.3279 13.7959 -2.3521 -137.894 -57.2637 201.126
lowerback 17.4217 5.42321 -13.7078
upperback 2.76335 4.15471 -1.39369
thorax -7.63968 2.22469 5.2025
lowerneck -10.8435 9.58761 -0.656239
upperneck -31.6619 7.85594 -17.3718
head -7.26969 4.23183 -5.85401
rclavicle -3.65764e-014 6.55989e-014
rhumerus 6.95156 21.9363 -99.554
rradius 64.1555
rwrist -9.31536
rhand -29.7146 -2.96548
rfingers 7.12502
rthumb -3.04184 -32.9235
lclavicle -3.65764e-014 6.55989e-014
lhumerus 59.4487 31.8307 159.849
lradius 7.34577
lwrist -84.4855
lhand -41.2407 30.8015
lfingers 7.12502
lthumb -14.1636 60.2987
rfemur -97.5735 -7.80825 34.4874
rtibia 81.7795
rfoot -11.8897 -1.66041
rtoes -28.1428
lfemur -113.914 22.093 -19.3013
ltibia 60.0724
lfoot -5.08226 8.18508
ltoes 1.79287
422
root -12.2857 13.827 -2.40969 -139.496 -56.558 201.91
lowerback 18.0394 5.97292 -14.3884
upperback 2.98924 4.62835 -1.28413
thorax -7.8787 2.45651 5.53799
lowerneck -10.8819 9.58151 -0.673266
upperneck -31.5373 7.88539 -17.3149
head -7.22192 4.24318 -5.82148
rclavicle 3.97569e-014 7.95139e-014
rhumerus 6.9192 21.5862 -99.6731
rradius 63.7746
rwrist -8.45176
rhand -29.4365 -1.71673
rfingers 7.12502
rthumb -2.7733 -31.6784
lclavicle 3.97569e-014 7.95139e-014
lhumerus 59.7098 32.1573 160.389
lradius 7.55251
lwrist -85.5643
lhand -39.9549 30.6812
lfingers 7.12502
lthumb -12.9243 60.2609
rfemur -96.2219 -7.05772 34.6862
rtibia 81.6901
rfoot -12.1455 -2.13907
rtoes -29.2353
lfemur -112.852 23.2876 -19.071
ltibia 60.1268
lfoot -5.24901 7.95305
ltoes 3.40354
423
root -12.2617 13.7745 -2.33107 -137.965 -57.5558 201.028
lowerback 18.0756 5.2386 -12.3728
upperback 2.72736 4.0604 -1.41503
thorax -7.92694 2.15833 4.43031
lowerneck -10.7637 9.43022 -1.27409
upperneck -31.5701 7.74528 -16.9819
head -7.33137 4.22218 -5.62118
rclavicle -7.15625e-014 -7.39479e-014
rhumerus 6.93363 21.656 -99.328
rradius 63.8086
rwrist -8.46882
rhand -28.7496 -2.31737
rfingers 7.12502
rthumb -2.10989 -32.2867
lclavicle -7.15625e-014 -7.39479e-014
lhumerus 60.0728 32.4058 161.305
lradius 7.59723
lwrist -86.0934
lhand -39.5873 30.2883
lfingers 7.12502
lthumb -12.57 59.8902
rfemur -97.884 -8.34038 35.5196
rtibia 81.7577
rfoot -12.3031 -1.19582
rtoes -29.3714
lfemur -113.716 21.7769 -18.3227
ltibia 59.9583
lfoot -4.35296 8.63081
ltoes 4.53949
424
root -12.2187 13.764 -2.3496 -137.829 -57.4022 200.964
lowerback 17.9401 5.19822 -12.4949
upperback 2.68522 4.00209 -1.44797
thorax -7.89539 2.13517 4.48342
lowerneck -10.5725 9.52319 -1.16783
upperneck -31.701 7.82814 -17.1205
head -7.38422 4.27416 -5.7031
rclavicle 1.19271e-014 2.80286e-014
rhumerus 6.81675 22.2027 -99.3908
rradius 64.1938
rwrist -9.16235
rhand -28.789 -3.47107
rfingers 7.12502
rthumb -2.14796 -33.44
lclavicle 1.19271e-014 2.80286e-014
lhumerus 60.5615 32.823 161.864
lradius 7.80524
lwrist -86.5906
lhand -39.4986 30.1022
lfingers 7.12502
lthumb -12.4844 59.7093
rfemur -98.144 -8.17831 35.7109
rtibia 81.849
rfoot -12.4603 -0.885103
rtoes -28.9281
lfemur -113.747 21.9839 -18.1808
ltibia 59.7464
lfoot -4.36646 8.59792
ltoes 4.47262
425
root -12.1755 13.7537 -2.36637 -137.789 -57.2066 200.833
lowerback 17.9961 5.18143 -12.6486
upperback 2.66349 3.93093 -1.51394
thorax -7.94324 2.10612 4.51159
lowerneck -10.5324 9.97638 0.257001
upperneck -31.5622 8.18132 -18.4975
head -7.10653 4.39593 -6.38792
rclavicle -2.62396e-014 -6.67916e-014
rhumerus 6.70372 22.6166 -99.5761
rradius 64.361
rwrist -9.59273
rhand -29.2418 -3.92968
rfingers 7.12502
rthumb -2.5852 -33.8938
lclavicle -2.62396e-014 -6.67916e-014
lhumerus 61.0326 33.2798 162.36
lradius 7.94013
lwrist -86.8656
lhand -39.8922 30.045
lfingers 7.12502
lthumb -12.8639 59.6285
rfemur -98.2163 -8.09793 35.7692
rtibia 82.0076
rfoot -12.69 -0.614834
rtoes -28.462
lfemur -113.627 22.2106 -17.9111
ltibia 59.4496
lfoot -4.01208 8.62268
ltoes 5.30318
426
root -12.1383 13.7449 -2.38903 -137.903 -57.1064 200.717
lowerback 18.1111 5.23038 -12.6586
upperback 2.71328 3.97065 -1.52933
thorax -7.95742 2.12076 4.4851
lowerneck -10.4935 9.93827 0.231874
upperneck -31.4317 8.16493 -18.4426
head -7.07453 4.39079 -6.35806
rclavicle 7.23576e-014 8.15017e-015
rhumerus 6.74244 22.5103 -99.6668
rradius 64.1417
rwrist -9.35841
rhand -29.4712 -3.94862
rfingers 7.12502
rthumb -2.80679 -33.9099
lclavicle 7.23576e-014 8.15017e-015
lhumerus 61.4659 33.5541 162.968
lradius 7.69934
lwrist -87.0928
lhand -40.2325 29.9602
lfingers 7.12502
lthumb -13.1919 59.5228
rfemur -98.0886 -8.12686 35.8376
rtibia 82.1649
rfoot -13.0574 -0.36101
rtoes -28.3027
lfemur -113.252 22.3618 -17.7988
ltibia 59.3306
lfoot -4.00952 8.7498
ltoes 5.3583
427
root -12.0994 13.7409 -2.41864 -137.977 -56.9151 200.596
lowerback 18.0956 5.38124 -12.7392
upperback 2.78882 4.15307 -1.5343
thorax -7.9025 2.20133 4.47738
lowerneck -10.3031 9.64645 -0.175691
upperneck -31.4063 7.79629 -18.1867
head -7.18164 4.24525 -6.21768
rclavicle -9.62118e-014 -5.58585e-014
rhumerus 6.94493 21.8088 -99.6132
rradius 63.681
rwrist -8.08275
rhand -28.5955 -3.58349
rfingers 7.12502
rthumb -1.96109 -33.5542
lclavicle -9.62118e-014 -5.58585e-014
lhumerus 61.6715 33.7261 163.619
lradius 7.53909
lwrist -87.4398
lhand -40.0237 29.4037
lfingers 7.12502
lthumb -12.9906 58.9793
rfemur -97.9136 -7.94521 35.7197
rtibia 82.2564
rfoot -13.3871 -0.453151
rtoes -28.6735
lfemur -112.946 22.5981 -17.7198
ltibia 59.2267
lfoot -4.01434 8.8482
ltoes 3.85374
428
root -12.0604 13.736 -2.44269 -137.983 -56.6041 200.509
lowerback 17.9963 5.57878 -12.8988
upperback 2.87573 4.39756 -1.51895
thorax -7.80797 2.31184 4.5235
lowerneck -10.3095 9.42991 -0.827304
upperneck -31.4346 7.54003 -17.9004
head -7.28292 4.16712 -6.01913
rclavicle -7.23576e-014 -2.88238e-014
rhumerus 7.14071 22.1189 -99.228
rradius 63.8485
rwrist -9.39023
rhand -28.9819 -2.89302
rfingers 7.12502
rthumb -2.33422 -32.86
lclavicle -7.23576e-014 -2.88238e-014
lhumerus 61.7994 33.8924 164.344
lradius 7.63412
lwrist -87.9487
lhand -39.6364 28.6933
lfingers 7.12502
lthumb -12.6173 58.2922
rfemur -97.8433 -7.6347 35.5635
rtibia 82.3126
rfoot -13.5565 -0.686155
rtoes -29.6184
lfemur -112.768 22.9125 -17.615
ltibia 59.1734
lfoot -3.97421 8.90006
ltoes 2.10952
429
root -12.0251 13.73 -2.45447 -138.074 -56.551 200.485
lowerback 18.0837 5.60551 -12.808
upperback 2.91747 4.44075 -1.4694
thorax -7.81423 2.32808 4.51248
lowerneck -10.4236 9.45133 -0.863465
upperneck -31.2626 7.55999 -18.0822
head -7.19309 4.18668 -6.05786
rclavicle -3.02153e-014 1.25234e-014
rhumerus 7.30338 21.8688 -99.1083
rradius 63.7408
rwrist -8.37116
rhand -28.6576 -4.61654
rfingers 7.12502
rthumb -2.02105 -34.5867
lclavicle -3.02153e-014 1.25234e-014
lhumerus 62.2634 34.088 165.144
lradius 7.72673
lwrist -88.5775
lhand -39.0944 28.462
lfingers 7.12502
lthumb -12.0947 58.0924
rfemur -97.8114 -7.60273 35.5605
rtibia 82.3558
rfoot -13.7051 -0.384047
rtoes -29.2573
lfemur -112.593 23.0265 -17.3735
ltibia 59.0603
lfoot -3.76492 8.97647
ltoes 0.933566
